<?xml version="1.0" encoding="UTF-8" standalone="no"?>
<!DOCTYPE svg PUBLIC "-//W3C//DTD SVG 1.1//EN"
 "http://www.w3.org/Graphics/SVG/1.1/DTD/svg11.dtd">
<!-- Generated by graphviz version 2.43.0 (0)
 -->
<!-- Title: %3 Pages: 1 -->
<svg width="1005pt" height="210pt"
 viewBox="0.00 0.00 1005.00 210.00" xmlns="http://www.w3.org/2000/svg" xmlns:xlink="http://www.w3.org/1999/xlink">
<g id="graph0" class="graph" transform="scale(1 1) rotate(0) translate(4 206)">
<title>%3</title>
<polygon fill="white" stroke="transparent" points="-4,4 -4,-206 1001,-206 1001,4 -4,4"/>
<!-- 126650143116464 -->
<g id="node1" class="node">
<title>126650143116464</title>
<polygon fill="none" stroke="black" points="4,-165.5 4,-201.5 204,-201.5 204,-165.5 4,-165.5"/>
<text text-anchor="middle" x="19" y="-179.8" font-family="Times,serif" font-size="14.00">x2</text>
<polyline fill="none" stroke="black" points="34,-165.5 34,-201.5 "/>
<text text-anchor="middle" x="76" y="-179.8" font-family="Times,serif" font-size="14.00">data: 0.0000</text>
<polyline fill="none" stroke="black" points="118,-165.5 118,-201.5 "/>
<text text-anchor="middle" x="161" y="-179.8" font-family="Times,serif" font-size="14.00">grad: 1.0000</text>
</g>
<!-- 126650143116656* -->
<g id="node8" class="node">
<title>126650143116656*</title>
<ellipse fill="none" stroke="black" cx="271" cy="-128.5" rx="27" ry="18"/>
<text text-anchor="middle" x="271" y="-124.8" font-family="Times,serif" font-size="14.00">*</text>
</g>
<!-- 126650143116464&#45;&gt;126650143116656* -->
<g id="edge4" class="edge">
<title>126650143116464&#45;&gt;126650143116656*</title>
<path fill="none" stroke="black" d="M179.99,-165.42C189.49,-162.67 199.03,-159.68 208,-156.5 218.55,-152.77 229.78,-147.96 239.74,-143.39"/>
<polygon fill="black" stroke="black" points="241.28,-146.54 248.84,-139.12 238.3,-140.2 241.28,-146.54"/>
</g>
<!-- 126650143116512 -->
<g id="node2" class="node">
<title>126650143116512</title>
<polygon fill="none" stroke="black" points="0,-55.5 0,-91.5 208,-91.5 208,-55.5 0,-55.5"/>
<text text-anchor="middle" x="16.5" y="-69.8" font-family="Times,serif" font-size="14.00">w1</text>
<polyline fill="none" stroke="black" points="33,-55.5 33,-91.5 "/>
<text text-anchor="middle" x="77.5" y="-69.8" font-family="Times,serif" font-size="14.00">data: &#45;3.0000</text>
<polyline fill="none" stroke="black" points="122,-55.5 122,-91.5 "/>
<text text-anchor="middle" x="165" y="-69.8" font-family="Times,serif" font-size="14.00">grad: 2.0000</text>
</g>
<!-- 126650143117664* -->
<g id="node6" class="node">
<title>126650143117664*</title>
<ellipse fill="none" stroke="black" cx="271" cy="-73.5" rx="27" ry="18"/>
<text text-anchor="middle" x="271" y="-69.8" font-family="Times,serif" font-size="14.00">*</text>
</g>
<!-- 126650143116512&#45;&gt;126650143117664* -->
<g id="edge6" class="edge">
<title>126650143116512&#45;&gt;126650143117664*</title>
<path fill="none" stroke="black" d="M208.09,-73.5C217.14,-73.5 225.83,-73.5 233.7,-73.5"/>
<polygon fill="black" stroke="black" points="233.87,-77 243.87,-73.5 233.87,-70 233.87,-77"/>
</g>
<!-- 126650143125296 -->
<g id="node3" class="node">
<title>126650143125296</title>
<polygon fill="none" stroke="black" points="697,-82.5 697,-118.5 997,-118.5 997,-82.5 697,-82.5"/>
<text text-anchor="middle" x="759.5" y="-96.8" font-family="Times,serif" font-size="14.00">((x1*w1)+(x2*w2))</text>
<polyline fill="none" stroke="black" points="822,-82.5 822,-118.5 "/>
<text text-anchor="middle" x="866.5" y="-96.8" font-family="Times,serif" font-size="14.00">data: &#45;6.0000</text>
<polyline fill="none" stroke="black" points="911,-82.5 911,-118.5 "/>
<text text-anchor="middle" x="954" y="-96.8" font-family="Times,serif" font-size="14.00">grad: 1.0000</text>
</g>
<!-- 126650143125296+ -->
<g id="node4" class="node">
<title>126650143125296+</title>
<ellipse fill="none" stroke="black" cx="634" cy="-100.5" rx="27" ry="18"/>
<text text-anchor="middle" x="634" y="-96.8" font-family="Times,serif" font-size="14.00">+</text>
</g>
<!-- 126650143125296+&#45;&gt;126650143125296 -->
<g id="edge1" class="edge">
<title>126650143125296+&#45;&gt;126650143125296</title>
<path fill="none" stroke="black" d="M661.3,-100.5C668.68,-100.5 677.27,-100.5 686.65,-100.5"/>
<polygon fill="black" stroke="black" points="686.67,-104 696.67,-100.5 686.67,-97 686.67,-104"/>
</g>
<!-- 126650143117664 -->
<g id="node5" class="node">
<title>126650143117664</title>
<polygon fill="none" stroke="black" points="334,-55.5 334,-91.5 571,-91.5 571,-55.5 334,-55.5"/>
<text text-anchor="middle" x="365" y="-69.8" font-family="Times,serif" font-size="14.00">(x1*w1)</text>
<polyline fill="none" stroke="black" points="396,-55.5 396,-91.5 "/>
<text text-anchor="middle" x="440.5" y="-69.8" font-family="Times,serif" font-size="14.00">data: &#45;6.0000</text>
<polyline fill="none" stroke="black" points="485,-55.5 485,-91.5 "/>
<text text-anchor="middle" x="528" y="-69.8" font-family="Times,serif" font-size="14.00">grad: 1.0000</text>
</g>
<!-- 126650143117664&#45;&gt;126650143125296+ -->
<g id="edge9" class="edge">
<title>126650143117664&#45;&gt;126650143125296+</title>
<path fill="none" stroke="black" d="M571.23,-91.21C580.6,-92.62 589.52,-93.96 597.52,-95.16"/>
<polygon fill="black" stroke="black" points="597.06,-98.63 607.47,-96.66 598.1,-91.71 597.06,-98.63"/>
</g>
<!-- 126650143117664*&#45;&gt;126650143117664 -->
<g id="edge2" class="edge">
<title>126650143117664*&#45;&gt;126650143117664</title>
<path fill="none" stroke="black" d="M298.1,-73.5C305.61,-73.5 314.33,-73.5 323.75,-73.5"/>
<polygon fill="black" stroke="black" points="323.78,-77 333.78,-73.5 323.78,-70 323.78,-77"/>
</g>
<!-- 126650143116656 -->
<g id="node7" class="node">
<title>126650143116656</title>
<polygon fill="none" stroke="black" points="336.5,-110.5 336.5,-146.5 568.5,-146.5 568.5,-110.5 336.5,-110.5"/>
<text text-anchor="middle" x="367.5" y="-124.8" font-family="Times,serif" font-size="14.00">(x2*w2)</text>
<polyline fill="none" stroke="black" points="398.5,-110.5 398.5,-146.5 "/>
<text text-anchor="middle" x="440.5" y="-124.8" font-family="Times,serif" font-size="14.00">data: 0.0000</text>
<polyline fill="none" stroke="black" points="482.5,-110.5 482.5,-146.5 "/>
<text text-anchor="middle" x="525.5" y="-124.8" font-family="Times,serif" font-size="14.00">grad: 1.0000</text>
</g>
<!-- 126650143116656&#45;&gt;126650143125296+ -->
<g id="edge5" class="edge">
<title>126650143116656&#45;&gt;126650143125296+</title>
<path fill="none" stroke="black" d="M568.7,-110.53C578.99,-108.92 588.8,-107.4 597.51,-106.04"/>
<polygon fill="black" stroke="black" points="598.21,-109.47 607.55,-104.47 597.13,-102.55 598.21,-109.47"/>
</g>
<!-- 126650143116656*&#45;&gt;126650143116656 -->
<g id="edge3" class="edge">
<title>126650143116656*&#45;&gt;126650143116656</title>
<path fill="none" stroke="black" d="M298.1,-128.5C306.28,-128.5 315.91,-128.5 326.3,-128.5"/>
<polygon fill="black" stroke="black" points="326.47,-132 336.47,-128.5 326.47,-125 326.47,-132"/>
</g>
<!-- 126650143120832 -->
<g id="node9" class="node">
<title>126650143120832</title>
<polygon fill="none" stroke="black" points="2.5,-110.5 2.5,-146.5 205.5,-146.5 205.5,-110.5 2.5,-110.5"/>
<text text-anchor="middle" x="19" y="-124.8" font-family="Times,serif" font-size="14.00">w2</text>
<polyline fill="none" stroke="black" points="35.5,-110.5 35.5,-146.5 "/>
<text text-anchor="middle" x="77.5" y="-124.8" font-family="Times,serif" font-size="14.00">data: 1.0000</text>
<polyline fill="none" stroke="black" points="119.5,-110.5 119.5,-146.5 "/>
<text text-anchor="middle" x="162.5" y="-124.8" font-family="Times,serif" font-size="14.00">grad: 0.0000</text>
</g>
<!-- 126650143120832&#45;&gt;126650143116656* -->
<g id="edge7" class="edge">
<title>126650143120832&#45;&gt;126650143116656*</title>
<path fill="none" stroke="black" d="M205.73,-128.5C215.55,-128.5 225,-128.5 233.49,-128.5"/>
<polygon fill="black" stroke="black" points="233.7,-132 243.7,-128.5 233.7,-125 233.7,-132"/>
</g>
<!-- 126650143357888 -->
<g id="node10" class="node">
<title>126650143357888</title>
<polygon fill="none" stroke="black" points="2,-0.5 2,-36.5 206,-36.5 206,-0.5 2,-0.5"/>
<text text-anchor="middle" x="17" y="-14.8" font-family="Times,serif" font-size="14.00">x1</text>
<polyline fill="none" stroke="black" points="32,-0.5 32,-36.5 "/>
<text text-anchor="middle" x="74" y="-14.8" font-family="Times,serif" font-size="14.00">data: 2.0000</text>
<polyline fill="none" stroke="black" points="116,-0.5 116,-36.5 "/>
<text text-anchor="middle" x="161" y="-14.8" font-family="Times,serif" font-size="14.00">grad: &#45;3.0000</text>
</g>
<!-- 126650143357888&#45;&gt;126650143117664* -->
<g id="edge8" class="edge">
<title>126650143357888&#45;&gt;126650143117664*</title>
<path fill="none" stroke="black" d="M179.99,-36.58C189.49,-39.33 199.03,-42.32 208,-45.5 218.55,-49.23 229.78,-54.04 239.74,-58.61"/>
<polygon fill="black" stroke="black" points="238.3,-61.8 248.84,-62.88 241.28,-55.46 238.3,-61.8"/>
</g>
</g>
</svg>
